<?xml version="1.0" encoding="UTF-8" standalone="no"?>
<svg width="227px" height="77px" viewBox="0 0 227 77" version="1.1" xmlns="http://www.w3.org/2000/svg" xmlns:xlink="http://www.w3.org/1999/xlink" xmlns:sketch="http://www.bohemiancoding.com/sketch/ns">
    <!-- Generator: Sketch 3.3.3 (12072) - http://www.bohemiancoding.com/sketch -->
    <title>bytedown-logo</title>
    <desc>Created with Sketch.</desc>
    <defs>
        <linearGradient x1="3.02674463%" y1="276.116071%" x2="93.1149348%" y2="50%" id="linearGradient-1">
            <stop stop-color="#000000" offset="0%"></stop>
            <stop stop-color="#7ED321" offset="100%"></stop>
        </linearGradient>
        <path id="path-2" d="M41.8108259,32.0621452 L41.4567389,27.5802328 L39.8756378,25.6972717 L39.3441752,21.5109211 L39.8756378,17.2721 L40.880102,14.7986795 L44.3963914,14.3330867 L48.9968644,14.2673325 L53.0665391,14.7986795 L53.0665391,18.0398965 L53.0665391,21.156247 L52.600845,23.1879852 L52.4234694,25.7205181 L51.4196694,28.5340008 L49.0260948,31.2299228 L48.2056494,33.2164966 L47.2018495,33.9178747 L41.8108259,32.0621452 Z"></path>
        <path id="path-3" d="M76.0934843,14.1418017 L77.6672778,11.0254513 L81.0792676,11.5567983 L82.0764243,11.9327264 L82.2538,16.0606288 L82.6670121,30.1698855 L82.4311756,31.2850501 L77.7190955,31.9937342 L77.0102572,28.0511391 L76.4854379,26.6995251 L76.0934843,14.1418017 Z"></path>
        <path id="path-4" d="M68.8908376,33.7930082 L64.1860651,26.3793885 L64.5408163,19.6080345 L66.1212532,16.314347 L69.7252338,15.7829999 L73.1372236,15.4283258 L76.0250585,15.2516529 L77.0149075,18.3015849 L76.6608206,21.8974761 L76.1951265,25.0058563 L75.4271631,27.7017784 L74.3635736,31.5859254 L73.8394186,33.1069063 L68.8908376,33.7930082 Z"></path>
        <path id="path-5" d="M52.9695472,14.2347875 L65.361926,14.5887974 L65.5393017,16.6417896 L64.4830198,20.1573145 L64.4830198,23.1036339 L64.4830198,25.4588297 L62.5996492,27.9913626 L60.4140094,31.3959688 L58.3532632,33.3971546 L56.3729007,33.8693893 L53.3156622,32.7243364 L52.4294483,29.3788426 L53.1382866,25.6647267 L53.256537,23.1913062 L52.9695472,14.2347875 Z"></path>
        <path id="path-6" d="M80.078125,10.4130738 L81.9023703,9.4161339 L85.2558992,12.3624533 L86.6144505,17.5530498 L86.6217581,22.1903812 L84.3318187,25.7650184 L83.0323926,28.7704502 L80.078125,10.4130738 Z"></path>
        <path id="path-7" d="M0.0405240221,6.99053462 L1.57645089,3.09974585 L4.33872768,0.677467488 L7.52218856,0.323457516 L9.46468431,2.91510275 L9.64139562,5.08631963 L9.46468431,8.37270114 L7.51488095,11.0161527 L5.80888605,12.7808891 L3.09111926,12.7808891 L1.73921131,12.9582262 L0.0405240221,6.99053462 Z"></path>
        <path id="path-8" d="M4.18460353,16.2001074 L4.90805697,12.0130926 L8.09882547,7.53184443 L11.3480548,4.75555609 L15.7718165,5.57515892 L17.4186862,8.86154042 L17.4186862,11.4458796 L16.2368463,16.1051291 L11.7539594,19.4127645 L8.63759566,20.6534598 L6.45859906,20.6534598 L4.18460353,16.2001074 Z"></path>
        <path id="path-9" d="M20.057398,29.2785508 L22.4655878,25.9994753 L25.0504889,22.9495433 L26.5206473,19.8331928 L26.3432717,15.8314853 L25.4570578,13.3574006 L23.7510629,11.356879 L22.3473374,9.18566212 L19.9391475,9.18566212 L17.5834396,9.65789681 L15.4635682,13.5207899 L13.2779284,18.1793751 L12.7458014,21.1256945 L12.5690901,23.8873708 L12.7909758,25.5411885 L20.057398,29.2785508 Z"></path>
        <path id="path-10" d="M34.9828603,31.2870427 L35.6916986,29.8763162 L37.8115699,26.1695064 L39.406622,21.9971037 L39.9387489,16.4524972 L38.4094653,14.8053214 L34.9383503,14.8053214 L31.2825521,14.392199 L27.8114371,13.6835149 L26.2821535,14.1557496 L25.7579985,18.1508152 L26.1120855,20.9862159 L26.1120855,24.7521381 L26.1120855,27.9933551 L26.8142804,30.5192462 L34.9828603,31.2870427 Z"></path>
    </defs>
    <g id="Page-1" stroke="none" stroke-width="1" fill="none" fill-rule="evenodd" sketch:type="MSPage">
        <g id="bytedown-logo" sketch:type="MSLayerGroup" transform="translate(-69.000000, -108.000000)">
            <g id="Mouth" transform="translate(70.068027, 108.819876)">
                <path d="M0.104963861,15.6587976 L1.04963861,10.370566 L4.81637968,7.0775427 L10.8139349,6.0148486 L18.5985332,6.0148486 L26.8401892,3.6516826 L33.678784,1.31774068 L39.3362032,0.60972074 L44.9657207,1.6578028 L52.8526254,3.07517105 L58.7319303,3.07517105 L65.6462585,2.14531371 L71.2611607,3.06188737 L76.1798469,5.39582929 L80.5232249,5.15937985 L84.630102,5.39582929 L90.2875213,4.10996943 L94.9856505,4.10996943 L100.996492,4.10996943 L108.058301,3.51884584 L115.237032,3.51884584 L118.606505,4.8047057 L120.260682,8.68885263 L120.614105,13.2531238 L121.767379,16.6816406 L122.107515,22.7961168 L120.231452,26.0320203 L118.355389,29.2081473 L106.436012,54.3262507 L103.155559,60.1763817 L100.126222,65.3025524 L97.2151361,69.6157621 L95.2208227,71.8314793 L91.3371599,72.8941734 L86.0770089,73.9581958 L78.3495429,75.035502 L73.6381271,75.035502 L67.1675702,75.035502 L61.2882653,74.6808278 L55.4381909,73.6327458 L49.5735013,72.9233975 L44.0343325,71.5060292 L38.5097789,71.5060292 L30.8580463,69.8522115 L25.8051658,66.5445761 L20.8864796,63.2515528 L17.5170068,59.5135263 L14.7095557,55.8193359 L13.0553784,51.4915142 L11.0610651,46.2192231 L9.65800383,43.1759329 L0.104963861,15.6587976 Z" id="open-mouth" stroke="#000000" stroke-width="0.680272109" fill="#000000" sketch:type="MSShapeGroup"></path>
                <text id="10111011" fill="url(#linearGradient-1)" sketch:type="MSTextLayer" font-family="Verdana" font-size="43.537415" font-weight="normal">
                    <tspan x="8.16326531" y="50.121118" fill="#7ED321">10111011</tspan>
                </text>
                <path d="M13.5635895,6.20945446 L22.6921237,4.1564623 L26.0237298,2.69392954 L30.1737883,1.91749867 L34.2949484,0.516070822 L39.1262755,0.516070822 L42.5389296,0.863438956 L47.5466358,1.91749867 L52.082669,2.9091251 L56.8319515,2.43622622 L61.6031569,2.43622622 L65.4639004,1.91749867 L71.7188829,2.9091251 L76.6701212,4.7183618 L79.8389668,4.7183618 L83.2795227,4.48921839 L88.8346354,4.0169837 L95.6330384,3.30829957 L101.149952,2.9091251 L108.157286,2.9091251 L113.204852,2.9091251 L116.443452,2.9091251 L115.977094,8.04924362 L112.561118,13.0445701 L104.179289,17.8293503 L83.2795227,19.660505 L71.3076637,17.3564514 L57.6822917,13.2810195 L54.3360704,13.2810195 L38.760895,12.8087848 L23.8872502,12.4541107 L16.3909705,11.8045389" id="upper-gums" stroke="#D78CA0" stroke-width="0.680272109" fill="#D78CA0" sketch:type="MSShapeGroup"></path>
                <g id="top-teeth" transform="translate(12.244898, 1.360248)" stroke="#000000" stroke-width="0.680272109" fill="#FFFFFF" sketch:type="MSShapeGroup">
                    <path d="M51.3113839,2.3060462 L48.7258185,5.37723214 L46.3767538,10.5180148 L45.3138287,15.3466312 L45.3138287,22.4201888 L48.1066645,25.4913747 L53.039966,26.200723 L62.0814732,26.5553972 L65.2423469,23.8521691 L66.6600234,19.2878979 L65.6117134,11.8888902 L63.2918793,6.26192498 L60.852466,3.48430828 L58.8442017,2.0064993 L56.1476935,1.47448806 L54.0942549,1.12047809 L51.3113839,2.3060462 Z" id="tooth"></path>
                    <path d="M101.386453,6.06333402 L99.3921397,8.01271351 L97.8701637,10.8926145 L96.1123512,11.8756066 L94.051605,14.5263642 L92.1091093,19.4805112 L91.754358,23.7259741 L93.0471407,27.08608 L96.3481877,27.5656208 L99.2951477,21.5547573 L100.653699,16.6079162 L101.539913,10.0657057 L101.386453,6.06333402 Z" id="tooth"></path>
                    <path d="M85.8843537,12.7343962 L87.8414647,10.6887101 L90.2562978,7.631472 L92.0141103,5.81492928 L94.3558673,5.81492928 L95.2420812,9.75818857 L95.5968325,13.4723044 L95.5968325,17.1126959 L95.2493888,21.9273644 L93.6543367,25.1692456 L92.1250531,26.3435225 L88.5356877,24.7700711 L85.9062766,23.9504683 L82.3826796,21.1290154 L83.4462691,16.5886549 L85.8843537,12.7343962 Z" id="tooth"></path>
                    <path d="M65.3911565,24.1649996 L66.232196,26.4026349 L70.3981983,26.8748696 L75.5826159,27.4062166 L82.3700574,27.7535848 L85.3681707,25.6414803 L85.4272959,22.1638138 L85.2572279,18.3314732 L85.2572279,13.5028569 L84.2673788,8.74730081 L82.4431335,5.22446987 L79.4071535,3.70282475 L76.0536246,3.70282475 L72.7147109,4.40486704 L70.1962426,6.10318505 L68.837027,8.50354535 L67.9136108,11.2512738 L67.4406091,13.7911127 L66.620828,16.1390025 L66.620828,18.9670971 L65.3911565,24.1649996 Z" id="tooth"></path>
                    <path d="M1.21107037,5.37457541 L0.561357355,8.62309843 L1.03369473,11.6212242 L2.68787202,14.4493188 L4.86686862,14.803993 L7.37869366,13.8070531 L10.02272,11.273856 L9.2102466,7.86260797 L7.5255102,4.8126759 L1.21107037,5.37457541 Z" id="tooth"></path>
                    <path d="M7.25845026,5.36062755 L6.97079613,9.52506005 L6.79342049,12.6414105 L7.25845026,15.8832917 L9.49657207,18.4603249 L12.3770993,18.4603249 L14.6524235,16.6364761 L17.9541348,11.7773074 L14.0027105,7.19842416 L11.3208174,5.72194354 L8.97175276,4.49586022 L7.25845026,5.36062755 Z" id="tooth"></path>
                    <path d="M14.9354273,3.0977533 L14.9354273,7.04101259 L14.9354273,10.8142408 L14.5813403,13.1548246 L14.6849756,15.5624909 L16.2587691,18.0146575 L17.7873884,20.162628 L20.2547034,21.8091397 L22.9060374,21.1144034 L24.7821003,19.4160854 L26.1931335,18.0644713 L27.3078763,16.6099088 L30.8460884,14.4313859 L28.1495801,9.07806434 L25.874256,6.92810134 L24.5369632,4.66788383 L23.0076796,2.08288043 L22.5426499,0.686766062 L14.9354273,3.0977533 Z" id="tooth"></path>
                    <path d="M40.1586416,2.67001892 L41.5032419,6.71689089 L42.788717,9.23547591 L43.4975553,12.7649487 L43.4975553,16.2426151 L43.4975553,19.2998532 L41.8128189,21.2200086 L38.1337691,20.5777429 L34.6035289,20.5777429 L31.2506643,20.4004058 L28.8424745,19.2188228 L27.9635682,16.4571465 L27.5496918,13.5772455 L28.7906569,10.3951408 L29.7878136,7.86260797 L30.6149022,6.22273814 L30.6149022,3.98576706 L30.2674585,1.57810074 L30.5484694,0.115567983 L40.1586416,2.67001892 Z" id="tooth"></path>
                </g>
                <path d="M11.9273491,47.0600798 L11.2769717,48.7065915 L12.4588116,51.2251765 L13.9947385,54.6291185 L15.6489158,57.4505714 L17.4665179,60.4785854 L19.1555724,63.1080891 L23.5012755,65.1232228 L24.9936889,67.1283937 L31.6286671,70.4692383 L35.805963,70.9567492 L39.5800117,72.1310262 L43.6344069,72.957935 L47.526706,73.1352721 L50.8729273,74.2431307 L54.8688616,75.1291519 L59.6467102,75.4240495 L64.6617241,75.5422742 L70.8432983,75.5867746 L75.8503401,75.7641116 L80.9836044,75.2327646 L85.8723958,74.3467434 L91.4261798,73.4461101 L95.2586894,72.1542726 L96.0273172,69.1109824 L96.3814041,65.5888156 L84.5211522,65.2932538 L68.5247927,63.9349979 L55.2462,63.1080891 L43.0903221,62.399405 L31.6286671,58.8553201 L21.304342,52.6531717 L15.2264031,48.282178 L11.9273491,47.0600798 Z" id="bottom-gums" stroke="#D78CA0" stroke-width="0.680272109" fill="#D78CA0" sketch:type="MSShapeGroup"></path>
                <g id="bottom-teeth" transform="translate(12.244898, 40.127329)">
                    <g id="tooth">
                        <use stroke="#000000" stroke-width="0.680272109" fill="#FFFFFF" fill-rule="evenodd" sketch:type="MSShapeGroup" xlink:href="#path-2"></use>
                        <use stroke="none" fill="none" xlink:href="#path-2"></use>
                    </g>
                    <g id="tooth">
                        <use stroke="#000000" stroke-width="0.680272109" fill="#FFFFFF" fill-rule="evenodd" sketch:type="MSShapeGroup" xlink:href="#path-3"></use>
                        <use stroke="none" fill="none" xlink:href="#path-3"></use>
                    </g>
                    <g id="tooth">
                        <use stroke="#000000" stroke-width="0.680272109" fill="#FFFFFF" fill-rule="evenodd" sketch:type="MSShapeGroup" xlink:href="#path-4"></use>
                        <use stroke="none" fill="none" xlink:href="#path-4"></use>
                    </g>
                    <g id="tooth">
                        <use stroke="#000000" stroke-width="0.680272109" fill="#FFFFFF" fill-rule="evenodd" sketch:type="MSShapeGroup" xlink:href="#path-5"></use>
                        <use stroke="none" fill="none" xlink:href="#path-5"></use>
                    </g>
                    <g id="tooth">
                        <use stroke="#000000" stroke-width="0.680272109" fill="#FFFFFF" fill-rule="evenodd" sketch:type="MSShapeGroup" xlink:href="#path-6"></use>
                        <use stroke="none" fill="none" xlink:href="#path-6"></use>
                    </g>
                    <g id="tooth">
                        <use stroke="#000000" stroke-width="0.680272109" fill="#FFFFFF" fill-rule="evenodd" sketch:type="MSShapeGroup" xlink:href="#path-7"></use>
                        <use stroke="none" fill="none" xlink:href="#path-7"></use>
                    </g>
                    <g id="tooth">
                        <use stroke="#000000" stroke-width="0.680272109" fill="#FFFFFF" fill-rule="evenodd" sketch:type="MSShapeGroup" xlink:href="#path-8"></use>
                        <use stroke="none" fill="none" xlink:href="#path-8"></use>
                    </g>
                    <g id="tooth">
                        <use stroke="#000000" stroke-width="0.680272109" fill="#FFFFFF" fill-rule="evenodd" sketch:type="MSShapeGroup" xlink:href="#path-9"></use>
                        <use stroke="none" fill="none" xlink:href="#path-9"></use>
                    </g>
                    <g id="tooth">
                        <use stroke="#000000" stroke-width="0.680272109" fill="#FFFFFF" fill-rule="evenodd" sketch:type="MSShapeGroup" xlink:href="#path-10"></use>
                        <use stroke="none" fill="none" xlink:href="#path-10"></use>
                    </g>
                </g>
            </g>
        </g>
    </g>
</svg>